HIERARCHY
ROOT simHips
{
  OFFSET -166.997 99.9426 6.42935
  CHANNELS 6 Xposition Yposition Zposition Zrotation Xrotation Yrotation
  JOINT simSpine
  {
    OFFSET -0.000355721 21.3001 -0.016921
    CHANNELS 3 Zrotation Xrotation Yrotation
    JOINT simLeftArm
    {
      OFFSET 13.5181 21.3012 0
      CHANNELS 3 Zrotation Xrotation Yrotation
      JOINT simLeftForeArm
      {
        OFFSET 24.5783 0 0
        CHANNELS 3 Zrotation Xrotation Yrotation
        JOINT simLeftHand
        {
          OFFSET 24.5783 0 0
          CHANNELS 3 Zrotation Xrotation Yrotation
          End Site
          {
            OFFSET 7.32568 1.52588e-05 0.0169305
          }
        }
      }
    }
    JOINT simHead
    {
      OFFSET 0 27.4458 -0.00489235
      CHANNELS 3 Zrotation Xrotation Yrotation
      End Site
      {
        OFFSET 0 0 0
      }
    }
    JOINT simRightArm
    {
      OFFSET -13.5174 21.3012 0
      CHANNELS 3 Zrotation Xrotation Yrotation
      JOINT simRightForeArm
      {
        OFFSET -24.5783 0 0
        CHANNELS 3 Zrotation Xrotation Yrotation
        JOINT simRightHand
        {
          OFFSET -24.5783 0 0
          CHANNELS 3 Zrotation Xrotation Yrotation
          End Site
          {
            OFFSET -7.32568 1.52588e-05 0.0169305
          }
        }
      }
    }
  }
  JOINT simRightUpLeg
  {
    OFFSET -8.44614 -9.41038 0.835684
    CHANNELS 3 Zrotation Xrotation Yrotation
    JOINT simRightLeg
    {
      OFFSET 0 -40.9639 0
      CHANNELS 3 Zrotation Xrotation Yrotation
      JOINT simRightFoot
      {
        OFFSET 0 -40.9639 0
        CHANNELS 3 Zrotation Xrotation Yrotation
        End Site
        {
          OFFSET 0.50614 -9.67405 14.6709
        }
      }
    }
  }
  JOINT simLeftUpLeg
  {
    OFFSET 8.44614 -9.41038 0.835684
    CHANNELS 3 Zrotation Xrotation Yrotation
    JOINT simLeftLeg
    {
      OFFSET 0 -40.9639 0
      CHANNELS 3 Zrotation Xrotation Yrotation
      JOINT simLeftFoot
      {
        OFFSET 0 -40.9639 0
        CHANNELS 3 Zrotation Xrotation Yrotation
        End Site
        {
          OFFSET -0.50614 -9.67405 14.6709
        }
      }
    }
  }
}
MOTION
Frames:	17
Frame Time:	0.0333333
-166.997 99.9426 6.42935 5.28692 3.29157 87.493 -2.28559 6.16768 3.86471 -88.2551 38.2851 1.42808 9.44821 -1.79275 -18.7523 -0.303659 17.4847 0.738682 2.16458 -9.33533 6.21056 86.392 37.5157 -9.72387 -15.7722 -4.1051 33.1853 0.720899 4.77594 -2.81591 -12.448 13.1188 0.60575 -0.568289 5.07866 -1.52017 2.1742 -13.1468 0.167781 5.45474 13.8307 -3.98658 -1.96427 4.44813 0.0429164 -1.06824 -10.302 15.3611 
-166.998 99.94 6.45148 5.25035 3.26176 87.4543 -2.31024 6.05983 3.82937 -88.1153 38.1527 1.41184 9.47446 -1.80442 -18.8067 -0.298091 17.8512 0.748204 2.11492 -9.02333 6.13774 86.3761 37.6517 -9.72582 -15.8836 -4.15996 33.3455 0.720967 4.46525 -2.81467 -12.3709 13.055 0.61152 -0.567474 5.10922 -1.52024 2.18932 -13.1215 0.234701 5.63886 13.7877 -3.31417 -1.92837 4.44904 0.0429165 -1.1096 -10.2604 14.6267 
-166.998 99.9416 6.44889 5.27548 3.26204 87.4434 -2.33508 6.02362 3.733 -88.0199 38.112 1.38932 9.5194 -1.82182 -18.8903 -0.296215 18.0458 0.755532 2.23542 -8.95257 6.34231 86.268 37.5777 -9.52703 -15.7518 -4.10688 33.1276 0.717754 4.59371 -2.81517 -12.3641 13.0988 0.64901 -0.567965 5.09081 -1.5202 2.17097 -13.2121 0.152827 5.53919 13.8075 -3.73093 -1.94862 4.50462 0.0429197 -1.08289 -10.3348 15.0029 
-167 99.9445 6.48653 5.30016 3.25382 87.3673 -2.3977 5.98142 3.71645 -87.846 38.4839 1.26859 9.46255 -1.80181 -18.8024 -0.317335 17.7129 0.763304 2.31699 -9.12876 6.45506 86.4184 37.7554 -9.58119 -15.788 -4.1247 33.1709 0.710308 4.45867 -2.81465 -12.3409 13.0745 0.600726 -0.565845 5.15213 -1.52576 2.23337 -13.1814 0.426794 5.66349 13.8438 -3.21076 -1.92154 4.46795 0.0344495 -1.2014 -9.96814 14.6114 
-167.014 99.9514 6.48638 5.392 3.11796 87.3545 -2.22397 6.07865 3.72809 -87.8902 38.6999 1.20312 9.47059 -1.80389 -18.8036 -0.345661 17.9763 0.793615 2.36423 -9.01018 6.36925 86.4086 37.7681 -9.47994 -15.6744 -4.07627 33.0151 0.697705 4.57131 -2.82031 -12.1693 13.1684 0.589345 -0.562548 5.2264 -1.54031 2.22213 -13.1691 0.377876 5.88289 13.9378 -2.88818 -1.90147 4.48133 0.0266553 -1.17597 -10.0616 14.2906 
-167.026 99.9795 6.50132 5.56188 3.21252 87.2364 -2.35645 6.22557 3.86343 -87.8718 39.063 1.13849 9.46554 -1.79937 -18.7868 -0.342215 17.7222 0.78684 2.27166 -9.08631 6.20961 86.5711 37.9107 -9.55188 -15.7017 -4.07902 33.0357 0.706954 4.27916 -2.8252 -12.2893 13.2927 0.815168 -0.565808 5.15452 -1.52546 2.17945 -13.1131 0.191327 5.54696 14.1249 -3.96787 -1.95814 4.45113 0.0235707 -1.04847 -10.4098 15.416 
-167.023 99.9645 6.48529 5.64113 3.37852 87.218 -2.54087 6.23775 3.85645 -87.9284 39.5159 1.14158 9.49378 -1.8068 -18.8331 -0.353574 17.7641 0.786408 2.3616 -9.15345 6.18616 86.8659 37.7803 -9.7829 -15.6755 -4.07321 33.0374 0.731849 5.06593 -2.83502 -12.5354 13.3763 0.789954 -0.567306 5.14492 -1.5116 2.20943 -13.2041 0.330351 5.24842 14.2882 -4.43875 -1.98533 4.36261 0.0351656 -0.89383 -10.8298 15.844 
-167.07 99.9911 6.53414 5.69117 2.82522 87.2856 -1.87805 6.3568 3.7366 -88.1492 39.844 1.13049 9.50678 -1.80918 -18.8437 -0.315533 17.3543 0.786924 2.04941 -9.22193 6.20079 86.9305 38.2538 -9.95804 -15.7955 -4.0872 33.1653 0.721291 4.64107 -2.81551 -11.7314 13.4677 0.922224 -0.562559 5.15615 -1.5611 2.16488 -13.2398 0.0514391 6.264 14.2302 -3.05842 -1.89468 4.52704 -0.00767495 -1.18215 -10.0504 14.3714 
-167.104 99.9948 6.53545 5.71841 3.01609 87.2031 -2.1534 6.37045 3.82053 -88.2517 40.1052 1.21917 9.60325 -1.84065 -19.0172 -0.374421 17.1277 0.791956 2.08284 -9.31373 6.18943 87.1997 38.3364 -10.0855 -15.824 -4.09139 33.198 0.755712 4.64249 -2.8243 -11.9832 13.4311 1.00379 -0.565873 5.09948 -1.54115 2.16912 -13.2118 0.0830138 5.7913 14.2902 -4.07159 -1.95456 4.50109 0.00823134 -0.970734 -10.6586 15.3898 
-167.133 99.991 6.56101 5.72644 3.22109 87.0783 -2.39196 6.28345 3.91198 -88.4209 40.2079 1.29505 9.58315 -1.83437 -18.9858 -0.32588 17.2289 0.80235 2.38693 -9.08127 6.37824 87.4725 38.3877 -10.1969 -15.8249 -4.10034 33.256 0.752461 4.36259 -2.8434 -12.2166 13.3517 1.16822 -0.56621 5.14886 -1.52265 2.14764 -13.1667 -0.00917982 5.56865 14.329 -3.8719 -1.95238 4.40674 0.0234239 -0.967003 -10.5682 15.3424 
-167.174 99.984 6.58713 5.76186 3.11119 87.0498 -2.28717 6.32679 3.92408 -88.4886 40.6899 1.27031 9.59127 -1.83298 -18.9906 -0.33996 16.7495 0.795459 2.42949 -9.11457 6.34599 87.7936 39.3989 -10.5926 -16.1474 -4.21958 33.727 0.724343 3.69127 -2.85125 -12.073 13.3769 1.28104 -0.564445 5.18929 -1.53034 2.15171 -13.1566 0.00650323 5.86506 14.3182 -3.1167 -1.91046 4.47715 0.0145334 -1.0971 -10.2008 14.6691 
-167.23 100.017 6.60448 5.67874 2.57987 87.2617 -1.65582 6.2365 3.67896 -88.819 40.8396 1.41141 9.68458 -1.86549 -19.1698 -0.346625 16.8036 0.789144 2.32384 -9.07708 6.49527 87.7677 39.1492 -10.4665 -15.9134 -4.11469 33.3629 0.703817 4.25478 -2.82907 -11.283 13.4294 1.3156 -0.569527 4.86905 -1.57084 2.09794 -12.9943 -0.23822 6.35676 14.1211 -4.43471 -1.96249 4.52242 -0.0323332 -0.990594 -10.6099 15.8492 
-167.26 100.017 6.58542 5.66595 2.8845 87.173 -1.97766 6.15603 3.75339 -88.8634 40.7824 1.40617 9.60836 -1.841 -19.0433 -0.282218 16.6034 0.791459 2.33299 -8.99523 6.38978 87.8797 39.057 -10.4845 -15.8083 -4.06542 33.2124 0.696782 4.43597 -2.8211 -11.7566 13.3397 1.18883 -0.57085 4.90244 -1.5447 2.11075 -12.9028 -0.191151 5.99406 14.1024 -4.02571 -1.95227 4.5029 -0.00158117 -1.00901 -10.4936 15.4881 
-167.314 100.015 6.62634 5.73817 2.92971 86.9896 -2.05549 6.19846 3.7992 -88.987 40.8257 1.5156 9.68644 -1.86505 -19.1701 -0.320487 16.8122 0.785578 2.38515 -8.77087 6.57492 87.9341 39.4513 -10.5483 -15.8303 -4.07996 33.2408 0.710187 4.32302 -2.83707 -11.8261 13.309 1.08287 -0.566083 5.055 -1.55228 2.1722 -12.9993 0.0724149 5.86226 14.2302 -4.34827 -1.97286 4.43254 -0.00509171 -0.885431 -10.8307 16.0035 
-167.374 100.019 6.63925 5.76794 2.79069 87.0956 -1.87242 6.27759 3.66547 -89.0308 41.6171 1.53857 9.87711 -1.92591 -19.4869 -0.323772 16.263 0.759985 2.28491 -8.83895 6.55784 87.8196 39.7051 -10.4525 -15.9509 -4.12444 33.3978 0.72457 3.88096 -2.84296 -11.6138 13.3276 1.21692 -0.571733 4.97998 -1.55665 2.13127 -12.9623 -0.128772 6.09822 14.1586 -4.25342 -1.96442 4.49308 -0.0163674 -0.999532 -10.4667 15.9581 
-167.431 99.9998 6.64497 5.7061 2.78936 87.1463 -1.80928 6.20422 3.70682 -89.0445 41.9204 1.59835 9.94184 -1.94726 -19.5888 -0.323433 16.1251 0.763082 2.24595 -8.90714 6.53361 87.7173 39.518 -10.481 -15.9155 -4.11155 33.369 0.7197 4.17691 -2.83885 -11.6209 13.1772 1.00961 -0.570201 5.10127 -1.5655 2.18815 -13.041 0.160357 6.22219 14.0777 -3.68077 -1.93088 4.49927 -0.00973726 -1.05074 -10.3477 15.1393 
-167.541 100.029 6.64116 5.69414 3.18516 87.1415 -2.29316 6.24239 3.65994 -88.8575 41.8153 1.50617 9.92175 -1.94156 -19.5596 -0.310764 16.3005 0.757418 2.02744 -8.90196 6.49564 87.6658 39.4845 -10.3176 -15.9379 -4.14068 33.4185 0.74063 4.39498 -2.86201 -12.1391 12.984 0.929372 -0.569194 5.3159 -1.53561 2.20479 -13.1369 0.260324 5.60358 14.0345 -4.34205 -1.97603 4.41749 0.0237255 -0.89801 -10.7676 15.685 
